<svg width="500" height="500" viewBox="0 0 500 500" fill="none" xmlns="http://www.w3.org/2000/svg">
<g clip-path="url(#clip0_905_129)">
<path d="M202.835 315.429C202.835 292.938 216.892 280.989 235.448 283.519C255.549 286.331 271.434 297.155 285.491 310.79C298.846 323.723 309.529 338.624 313.746 357.179C316.136 367.3 315.714 377.281 308.826 385.856C306.155 389.229 302.641 391.197 298.143 390.213C291.676 388.808 288.162 380.936 292.239 375.594C295.894 370.674 296.456 365.613 294.628 360.412C284.226 331.736 265.108 312.056 235.588 303.059C233.761 302.497 231.652 302.497 229.825 302.637C224.905 303.059 222.796 305.589 222.515 310.65C222.234 315.992 223.921 320.912 226.029 325.691C230.387 335.672 236.713 344.247 244.304 351.978C247.537 355.211 249.224 358.866 247.396 363.364C245.147 369.409 237.556 372.08 233.058 367.722C216.33 352.54 204.381 334.688 202.835 315.429Z" fill="#25FFFF"/>
<path d="M361.119 150.257C389.795 150.117 413.974 173.03 414.958 201.144C415.239 208.876 412.006 213.374 405.961 213.655C399.917 213.937 395.981 209.579 395.559 202.128C394.294 183.714 379.815 169.797 361.822 169.797C343.266 169.656 328.084 184.416 327.382 203.253C326.819 221.387 341.439 237.131 359.713 238.115C366.46 238.537 370.115 241.067 370.959 245.987C372.224 252.734 367.445 257.795 360.135 257.654C335.535 257.514 313.324 238.677 308.545 213.937C302.36 181.183 327.803 150.398 361.119 150.257Z" fill="#25FFFF"/>
<path d="M470.905 204.518C483.416 196.787 485.244 184.276 484.541 171.203C483.557 153.631 477.653 137.465 468.375 122.705C458.535 107.243 446.586 93.8882 429.718 85.8757C421.284 81.9396 412.568 80.6745 403.853 85.1728C401.322 86.4379 399.917 86.0162 398.089 84.3294C378.128 67.3202 355.777 54.247 331.037 45.6721C328.225 44.6881 327.241 43.2824 327.241 40.471C327.382 35.551 326.398 30.7715 323.867 26.4138C319.51 18.8229 312.762 13.7623 305.171 9.82633C293.926 4.06289 281.696 1.25145 269.185 0.408023C249.224 -0.997695 229.825 0.970313 211.832 10.3886C199.18 16.9955 190.043 26.4138 190.465 41.8767C190.605 44.6881 188.637 44.9693 186.95 45.5316C176.829 49.0458 166.989 53.4036 157.571 58.4642C109.214 84.8916 75.6176 124.111 56.4999 175.842C55.9376 177.388 56.2187 179.496 53.6884 179.637C40.3341 180.199 32.6027 188.774 26.6986 199.317C19.1078 212.953 15.8746 227.853 15.1718 243.175C14.1878 264.261 17.2803 284.644 28.3855 303.2C33.8678 312.337 41.4587 319.084 52.7044 319.646C55.6564 319.787 55.9376 321.614 56.6404 323.582C64.7936 346.215 76.1799 367.019 91.0805 385.996C93.1891 388.667 93.6108 390.213 90.9399 393.025C68.589 416.782 69.0107 446.442 92.0645 468.934C106.262 482.85 123.271 492.128 142.249 497.751C144.638 498.454 147.309 498.173 149.277 500C149.98 500 150.542 500 151.245 500C156.025 498.032 161.085 499.438 166.005 499.157C165.865 499.297 165.865 499.438 165.865 499.578C172.612 499.719 178.516 497.61 184.139 494.096C193.557 488.192 199.742 479.617 204.522 469.777C207.193 464.295 207.333 464.295 213.097 465.701C227.997 469.355 243.32 470.761 258.501 470.902C272.278 471.042 286.054 469.777 299.548 466.684C303.203 465.841 304.75 466.966 306.155 470.199C312.903 486.083 323.586 497.329 341.579 500C346.781 500 351.982 500 357.183 500C358.87 498.313 361.119 499.157 363.087 498.594C381.221 494.518 396.824 485.381 411.725 474.838C426.204 464.717 439.558 453.33 448.836 438.008C462.752 415.095 459.238 391.76 439.136 374.048C437.309 372.361 437.028 371.377 438.433 369.268C442.791 362.802 446.586 356.055 450.101 349.026C472.452 304.605 478.356 257.935 470.203 209.157C469.921 207.611 468.656 205.924 470.905 204.518ZM217.595 29.2252C223.359 25.4298 229.825 23.3212 236.572 21.7749C254.425 17.9795 271.996 18.2606 289.427 24.1647C292.942 25.2892 296.315 26.9761 299.548 28.9441C310.232 35.6915 310.232 42.2984 299.408 48.9053C291.536 53.8253 282.82 56.0744 273.683 57.3396C268.763 58.0424 263.703 58.6047 260.469 58.4642C247.256 58.3236 236.151 56.9179 225.748 52.5601C222.937 51.4356 220.125 50.0298 217.595 48.343C207.615 42.1578 207.755 35.6915 217.595 29.2252ZM66.1993 286.472C64.9342 289.424 63.5284 292.376 61.4199 294.906C55.797 301.794 51.0176 301.794 45.8164 294.765C40.6153 287.737 37.9444 279.584 36.2575 271.009C32.4621 251.75 33.3055 232.914 40.6153 214.499C42.4427 210 44.6918 205.643 48.2061 202.128C51.861 198.614 54.5319 198.474 58.4679 201.566C62.1227 204.518 64.3719 208.454 66.0587 212.671C70.9788 224.62 72.8062 236.99 73.0873 249.782C72.9468 262.293 70.9788 274.664 66.1993 286.472ZM186.107 459.937C178.797 476.665 165.443 483.553 147.731 478.774C131.706 474.416 117.649 466.544 105.7 455.017C89.2531 439.273 89.8154 420.155 106.684 404.271C120.038 417.766 134.658 429.433 150.964 439.132C161.366 445.318 172.331 450.8 183.717 455.017C186.669 456.142 187.372 457.126 186.107 459.937ZM464.58 181.605C463.736 185.682 461.909 188.212 457.27 188.634C450.382 189.336 447.008 194.538 448.695 201.566C457.832 242.754 455.864 283.238 440.401 322.739C431.967 344.387 420.018 364.067 404.837 381.639C403.572 383.185 402.166 384.591 401.041 386.137C397.527 390.776 397.808 396.117 401.744 399.772C405.821 403.568 411.584 403.287 415.661 398.929C418.332 396.117 421.002 393.165 423.252 390.073C424.657 388.105 425.641 388.245 427.328 389.651C436.606 397.383 439.839 409.05 435.622 420.436C432.108 430.136 425.501 437.867 418.05 444.615C401.322 459.656 383.329 472.729 361.4 478.774C344.11 483.553 332.021 477.79 325.414 462.608C324.148 459.796 324.008 458.391 327.522 457.407C331.739 456.282 335.816 454.455 339.752 452.768C345.937 450.097 348.467 445.036 346.359 439.554C344.25 434.212 338.627 432.104 332.442 434.634C315.855 441.522 298.705 446.302 280.852 448.27C234.042 453.611 191.027 442.787 152.089 416.641C116.243 392.603 91.2211 359.991 75.477 318.944C92.7674 320.349 107.809 325.832 121.585 335.109C125.942 338.061 129.878 341.295 133.674 344.949C138.734 349.869 144.638 350.151 148.715 345.793C152.792 341.576 152.229 335.672 147.028 330.752C129.738 314.164 109.214 304.043 85.5982 300.388C83.3491 300.107 81.0999 300.529 82.7868 296.593C96.7034 264.823 96.2817 232.914 82.3651 201.144C82.0839 200.582 81.9433 200.02 81.6622 199.036C98.812 196.787 114.556 191.304 129.035 182.167C135.361 178.091 141.265 173.592 146.747 168.391C152.089 163.19 152.932 157.427 148.715 153.069C144.498 148.571 138.875 148.992 133.252 154.194C116.665 169.656 96.5628 178.653 75.477 179.778C96.0005 127.063 131.987 89.8117 184.561 66.7579C181.046 75.6139 176.408 82.6425 170.363 88.6871C168.676 90.3739 166.708 91.9202 164.881 93.6071C160.664 97.5431 159.961 103.025 163.334 107.102C166.708 111.46 172.472 112.303 177.251 108.648C188.497 100.073 196.369 88.8277 201.992 76.0356C203.257 73.0836 204.522 69.991 205.506 66.8985C206.209 64.7899 206.912 64.3682 208.739 65.6333C226.17 75.8951 245.428 78.4253 265.108 77.5819C280.29 77.0196 295.05 73.9271 308.404 66.055C311.075 64.5087 311.778 65.071 312.622 67.7419C317.26 81.6585 324.43 94.0288 335.254 104.15C336.941 105.696 338.627 107.243 340.455 108.648C345.375 112.163 350.857 111.6 354.371 107.383C357.745 103.166 357.183 97.262 352.544 93.4665C346.078 88.2654 340.877 82.0802 336.8 75.0516C335.535 72.8025 334.551 70.5533 332.864 67.1796C348.327 73.3648 361.541 81.0962 374.051 90.0928C380.799 95.0128 386.984 100.355 393.169 105.977C399.636 111.881 404.696 111.6 410.038 104.712C412.99 100.917 416.364 101.479 420.018 102.744C426.485 104.993 431.686 109.351 436.465 113.849C452.772 129.593 462.471 148.43 465.142 171.062C465.564 174.858 465.283 178.231 464.58 181.605Z" fill="#25FFFF"/>
<path d="M229.262 150.258C207.896 150.258 190.184 168.11 190.324 189.477C190.465 210.985 208.177 228.415 229.684 228.415C251.192 228.275 268.482 210.703 268.482 189.196C268.341 167.548 250.911 150.258 229.262 150.258ZM229.403 208.876C218.72 208.876 209.864 199.879 210.004 189.196C210.145 178.512 219.001 169.656 229.684 169.797C240.508 169.938 249.083 178.653 248.943 189.477C248.943 200.301 240.227 208.876 229.403 208.876Z" fill="#25FFFF"/>
</g>
<defs>
<clipPath id="clip0_905_129">
<rect width="500" height="500" fill="white"/>
</clipPath>
</defs>
</svg>
