<svg width="500" height="500" viewBox="0 0 500 500" fill="none" xmlns="http://www.w3.org/2000/svg">
<path d="M493.985 415.507L372.438 293.965C413.848 218.525 402.783 121.794 338.908 58.0889C261.453 -19.3629 135.546 -19.3629 58.0913 58.0889C-19.3638 135.541 -19.3638 261.442 58.0913 338.894C121.967 402.766 218.701 413.831 293.977 372.422L415.524 493.965C423.572 502.012 436.816 502.012 444.863 493.965L493.818 445.013C502.033 436.798 502.033 423.722 493.985 415.507ZM110.231 286.588C61.612 237.971 61.612 158.843 110.231 110.226C158.85 61.6094 237.981 61.6094 286.6 110.226C335.219 158.843 335.219 237.971 286.6 286.588C237.981 335.205 158.85 335.205 110.231 286.588Z" fill="white"/>
</svg>
